<svg width="287" height="45" viewBox="0 0 287 45" fill="none" xmlns="http://www.w3.org/2000/svg">
<path d="M21.7763 6.7835C21.7763 6.98894 21.6941 7.17384 21.5298 7.3382C21.4065 7.46146 21.2422 7.52309 21.0367 7.52309H7.78571C7.58027 7.52309 7.47755 7.62582 7.47755 7.83126V19.4798C7.47755 19.6853 7.58027 19.788 7.78571 19.788H15.6131C15.8185 19.788 15.9829 19.8702 16.1061 20.0345C16.2705 20.1578 16.3527 20.3221 16.3527 20.5276V25.2733C16.3527 25.4787 16.2705 25.6636 16.1061 25.828C15.9829 25.9513 15.8185 26.0129 15.6131 26.0129H7.78571C7.58027 26.0129 7.47755 26.1156 7.47755 26.3211V43.7631C7.47755 43.9685 7.39537 44.1534 7.23102 44.3178C7.10775 44.4411 6.9434 44.5027 6.73796 44.5027H1.06775C0.862313 44.5027 0.677415 44.4411 0.513061 44.3178C0.389796 44.1534 0.328163 43.9685 0.328163 43.7631V2.09942C0.328163 1.89398 0.389796 1.72963 0.513061 1.60636C0.677415 1.44201 0.862313 1.35983 1.06775 1.35983H21.0367C21.2422 1.35983 21.4065 1.44201 21.5298 1.60636C21.6941 1.72963 21.7763 1.89398 21.7763 2.09942V6.7835ZM279.53 2.09942C279.53 1.89398 279.591 1.72963 279.715 1.60636C279.879 1.44201 280.064 1.35983 280.269 1.35983H285.878C286.083 1.35983 286.248 1.44201 286.371 1.60636C286.535 1.72963 286.618 1.89398 286.618 2.09942V43.7631C286.618 43.9685 286.535 44.1534 286.371 44.3178C286.248 44.4411 286.083 44.5027 285.878 44.5027H279.407C278.996 44.5027 278.729 44.2972 278.605 43.8864L269.422 17.7541C269.381 17.6309 269.299 17.5898 269.176 17.6308C269.093 17.6308 269.052 17.6925 269.052 17.8157L269.114 43.7631C269.114 43.9685 269.032 44.1534 268.867 44.3178C268.744 44.4411 268.58 44.5027 268.374 44.5027H262.766C262.56 44.5027 262.375 44.4411 262.211 44.3178C262.088 44.1534 262.026 43.9685 262.026 43.7631V2.09942C262.026 1.89398 262.088 1.72963 262.211 1.60636C262.375 1.44201 262.56 1.35983 262.766 1.35983H269.114C269.525 1.35983 269.792 1.56527 269.915 1.97615L279.16 27.9235C279.201 28.0468 279.263 28.1084 279.345 28.1084C279.468 28.0673 279.53 27.9851 279.53 27.8619V2.09942Z" fill="#FCAA29"/>
<path d="M42.9804 44.5027C42.5695 44.5027 42.3024 44.2972 42.1791 43.8864L36.9404 26.1978C36.8582 26.0334 36.7555 25.9513 36.6322 25.9513H33.3657C33.1602 25.9513 33.0575 26.054 33.0575 26.2594V43.7631C33.0575 43.9685 32.9753 44.1534 32.811 44.3178C32.6877 44.4411 32.5234 44.5027 32.3179 44.5027H26.6477C26.4423 44.5027 26.2574 44.4411 26.093 44.3178C25.9698 44.1534 25.9081 43.9685 25.9081 43.7631V2.09942C25.9081 1.89398 25.9698 1.72963 26.093 1.60636C26.2574 1.44201 26.4423 1.35983 26.6477 1.35983H38.2346C40.4123 1.35983 42.3229 1.89398 43.9665 2.96228C45.6511 3.98949 46.9454 5.46867 47.8493 7.39983C48.7944 9.2899 49.2669 11.4676 49.2669 13.9329C49.2669 16.4804 48.7738 18.6786 47.7877 20.5276C46.8016 22.3766 45.4251 23.7736 43.6583 24.7186C43.494 24.7597 43.4323 24.883 43.4734 25.0884L49.5134 43.6398C49.5545 43.722 49.5751 43.8247 49.5751 43.948C49.5751 44.3178 49.3491 44.5027 48.8971 44.5027H42.9804ZM33.3657 7.52309C33.1602 7.52309 33.0575 7.62582 33.0575 7.83126V20.0962C33.0575 20.3016 33.1602 20.4043 33.3657 20.4043H37.1253C38.6044 20.4043 39.796 19.8291 40.7 18.6786C41.645 17.5281 42.1175 15.9668 42.1175 13.9945C42.1175 12.0223 41.645 10.4609 40.7 9.31044C39.796 8.11888 38.6044 7.52309 37.1253 7.52309H33.3657Z" fill="#C5D9D1"/>
<path d="M65.719 44.9957C62.1854 44.9957 59.3503 43.8658 57.2137 41.606C55.1181 39.305 54.0704 36.285 54.0704 32.546V2.09942C54.0704 1.89398 54.132 1.72963 54.2553 1.60636C54.4196 1.44201 54.6045 1.35983 54.81 1.35983H60.4802C60.6856 1.35983 60.85 1.44201 60.9732 1.60636C61.1376 1.72963 61.2198 1.89398 61.2198 2.09942V33.2855C61.2198 34.9291 61.6307 36.2645 62.4524 37.2917C63.2742 38.3189 64.363 38.8325 65.719 38.8325C67.0749 38.8325 68.1637 38.3189 68.9855 37.2917C69.8073 36.2645 70.2181 34.9291 70.2181 33.2855V2.09942C70.2181 1.89398 70.2798 1.72963 70.403 1.60636C70.5674 1.44201 70.7523 1.35983 70.9577 1.35983H76.6279C76.8334 1.35983 76.9977 1.44201 77.121 1.60636C77.2854 1.72963 77.3675 1.89398 77.3675 2.09942V32.546C77.3675 36.285 76.2992 39.305 74.1626 41.606C72.026 43.8658 69.2115 44.9957 65.719 44.9957Z" fill="#F59176"/>
<path d="M84.4885 44.5027C84.2831 44.5027 84.0982 44.4411 83.9338 44.3178C83.8105 44.1534 83.7489 43.9685 83.7489 43.7631V2.09942C83.7489 1.89398 83.8105 1.72963 83.9338 1.60636C84.0982 1.44201 84.2831 1.35983 84.4885 1.35983H90.1587C90.3642 1.35983 90.5285 1.44201 90.6518 1.60636C90.8161 1.72963 90.8983 1.89398 90.8983 2.09942V43.7631C90.8983 43.9685 90.8161 44.1534 90.6518 44.3178C90.5285 44.4411 90.3642 44.5027 90.1587 44.5027H84.4885ZM202.919 44.9957C199.509 44.9957 196.756 43.9685 194.66 41.9141C192.565 39.8597 191.517 37.1684 191.517 33.8402V32.2378C191.517 32.0323 191.579 31.868 191.702 31.7447C191.866 31.5804 192.051 31.4982 192.257 31.4982H197.865C198.071 31.4982 198.235 31.5804 198.358 31.7447C198.523 31.868 198.605 32.0323 198.605 32.2378V33.4704C198.605 35.0729 198.995 36.3672 199.776 37.3533C200.598 38.3394 201.645 38.8325 202.919 38.8325C204.193 38.8325 205.241 38.3805 206.062 37.4766C206.884 36.5315 207.295 35.2989 207.295 33.7786C207.295 32.7103 207.069 31.7858 206.617 31.0051C206.165 30.2245 205.528 29.4849 204.706 28.7864C203.885 28.0879 202.57 27.0812 200.762 25.7664C198.707 24.2872 197.043 22.9723 195.77 21.8219C194.537 20.6714 193.489 19.2949 192.626 17.6925C191.805 16.0489 191.394 14.1589 191.394 12.0223C191.394 8.61194 192.421 5.9001 194.475 3.88677C196.53 1.87344 199.242 0.86677 202.611 0.86677C206.021 0.86677 208.774 1.93507 210.87 4.07167C212.965 6.16718 214.013 8.96119 214.013 12.4537V13.9329C214.013 14.1383 213.931 14.3232 213.766 14.4876C213.643 14.6108 213.479 14.6725 213.273 14.6725H207.726C207.521 14.6725 207.336 14.6108 207.172 14.4876C207.048 14.3232 206.987 14.1383 206.987 13.9329V12.3304C206.987 10.728 206.576 9.45425 205.754 8.50922C204.973 7.52309 203.926 7.03003 202.611 7.03003C201.378 7.03003 200.372 7.48201 199.591 8.38595C198.81 9.24881 198.42 10.4609 198.42 12.0223C198.42 13.5015 198.831 14.7547 199.652 15.7819C200.515 16.8091 202.179 18.2266 204.645 20.0345C207.151 21.8835 209.041 23.4038 210.315 24.5953C211.589 25.7458 212.575 27.0196 213.273 28.4166C213.972 29.8136 214.321 31.4777 214.321 33.4088C214.321 36.9013 213.273 39.7159 211.178 41.8525C209.082 43.948 206.329 44.9957 202.919 44.9957Z" fill="#F4CF09"/>
<path d="M119.658 1.35983C119.864 1.35983 120.028 1.44201 120.151 1.60636C120.316 1.72963 120.398 1.89398 120.398 2.09942V6.7835C120.398 6.98894 120.316 7.17384 120.151 7.3382C120.028 7.46146 119.864 7.52309 119.658 7.52309H111.831C111.625 7.52309 111.523 7.62582 111.523 7.83126V43.7631C111.523 43.9685 111.44 44.1534 111.276 44.3178C111.153 44.4411 110.988 44.5027 110.783 44.5027H105.113C104.907 44.5027 104.722 44.4411 104.558 44.3178C104.435 44.1534 104.373 43.9685 104.373 43.7631V7.83126C104.373 7.62582 104.271 7.52309 104.065 7.52309H96.6691C96.4637 7.52309 96.2788 7.46146 96.1144 7.3382C95.9912 7.17384 95.9295 6.98894 95.9295 6.7835V2.09942C95.9295 1.89398 95.9912 1.72963 96.1144 1.60636C96.2788 1.44201 96.4637 1.35983 96.6691 1.35983H119.658Z" fill="#00757C"/>
<path d="M159.186 6.7835C159.186 6.98894 159.104 7.17384 158.939 7.3382C158.816 7.46146 158.652 7.52309 158.446 7.52309H145.195C144.99 7.52309 144.887 7.62582 144.887 7.83126V19.4798C144.887 19.6853 144.99 19.788 145.195 19.788H153.023C153.228 19.788 153.392 19.8702 153.516 20.0345C153.68 20.1578 153.762 20.3221 153.762 20.5276V25.2733C153.762 25.4787 153.68 25.6636 153.516 25.828C153.392 25.9513 153.228 26.0129 153.023 26.0129H145.195C144.99 26.0129 144.887 26.1156 144.887 26.3211V43.7631C144.887 43.9685 144.805 44.1534 144.641 44.3178C144.517 44.4411 144.353 44.5027 144.147 44.5027H138.477C138.272 44.5027 138.087 44.4411 137.923 44.3178C137.799 44.1534 137.738 43.9685 137.738 43.7631V2.09942C137.738 1.89398 137.799 1.72963 137.923 1.60636C138.087 1.44201 138.272 1.35983 138.477 1.35983H158.446C158.652 1.35983 158.816 1.44201 158.939 1.60636C159.104 1.72963 159.186 1.89398 159.186 2.09942V6.7835Z" fill="#F5906F"/>
<path d="M174.72 44.9957C171.186 44.9957 168.351 43.8658 166.214 41.606C164.119 39.305 163.071 36.285 163.071 32.546V2.09942C163.071 1.89398 163.133 1.72963 163.256 1.60636C163.42 1.44201 163.605 1.35983 163.811 1.35983H169.481C169.686 1.35983 169.851 1.44201 169.974 1.60636C170.138 1.72963 170.22 1.89398 170.22 2.09942V33.2855C170.22 34.9291 170.631 36.2645 171.453 37.2917C172.275 38.3189 173.364 38.8325 174.72 38.8325C176.076 38.8325 177.164 38.3189 177.986 37.2917C178.808 36.2645 179.219 34.9291 179.219 33.2855V2.09942C179.219 1.89398 179.28 1.72963 179.404 1.60636C179.568 1.44201 179.753 1.35983 179.958 1.35983H185.629C185.834 1.35983 185.998 1.44201 186.122 1.60636C186.286 1.72963 186.368 1.89398 186.368 2.09942V32.546C186.368 36.285 185.3 39.305 183.163 41.606C181.027 43.8658 178.212 44.9957 174.72 44.9957Z" fill="#C4DAD1"/>
<path d="M220.213 44.5027C220.007 44.5027 219.822 44.4411 219.658 44.3178C219.535 44.1534 219.473 43.9685 219.473 43.7631V2.09942C219.473 1.89398 219.535 1.72963 219.658 1.60636C219.822 1.44201 220.007 1.35983 220.213 1.35983H225.883C226.088 1.35983 226.253 1.44201 226.376 1.60636C226.54 1.72963 226.623 1.89398 226.623 2.09942V43.7631C226.623 43.9685 226.54 44.1534 226.376 44.3178C226.253 44.4411 226.088 44.5027 225.883 44.5027H220.213Z" fill="#DEE8E2"/>
<path d="M244.288 44.9957C240.755 44.9957 237.899 43.9274 235.722 41.7908C233.585 39.6543 232.517 36.8191 232.517 33.2855V12.577C232.517 9.04337 233.585 6.20826 235.722 4.07167C237.899 1.93507 240.755 0.86677 244.288 0.86677C247.822 0.86677 250.678 1.93507 252.855 4.07167C255.033 6.20826 256.122 9.04337 256.122 12.577V33.2855C256.122 36.8191 255.033 39.6543 252.855 41.7908C250.678 43.9274 247.822 44.9957 244.288 44.9957ZM244.288 38.8325C245.685 38.8325 246.815 38.36 247.678 37.4149C248.541 36.4288 248.973 35.1551 248.973 33.5937V12.2688C248.973 10.7074 248.541 9.45425 247.678 8.50922C246.815 7.52309 245.685 7.03003 244.288 7.03003C242.891 7.03003 241.762 7.52309 240.899 8.50922C240.077 9.45425 239.666 10.7074 239.666 12.2688V33.5937C239.666 35.1551 240.077 36.4288 240.899 37.4149C241.762 38.36 242.891 38.8325 244.288 38.8325Z" fill="#00757B"/>
</svg>
