<svg width="176" height="61" viewBox="0 0 176 61" fill="none" xmlns="http://www.w3.org/2000/svg">
<path d="M5.6065 42.59C5.6065 42.6866 5.55821 42.7349 5.46163 42.7349H2.1296C2.09097 42.7349 2.07165 42.7542 2.07165 42.7929V46.3856C2.07165 46.4243 2.09097 46.4436 2.1296 46.4436H4.23023C4.32681 46.4436 4.3751 46.4919 4.3751 46.5885V47.2114C4.3751 47.308 4.32681 47.3563 4.23023 47.3563H2.1296C2.09097 47.3563 2.07165 47.3756 2.07165 47.4142V51.8328C2.07165 51.9294 2.02336 51.9777 1.92678 51.9777H1.18794C1.09136 51.9777 1.04307 51.9294 1.04307 51.8328V41.9816C1.04307 41.885 1.09136 41.8367 1.18794 41.8367H5.46163C5.55821 41.8367 5.6065 41.885 5.6065 41.9816V42.59ZM10.9565 51.9777C10.8696 51.9777 10.8117 51.939 10.7827 51.8618L9.305 47.3853C9.29535 47.3563 9.27603 47.3418 9.24706 47.3418H7.98668C7.94805 47.3418 7.92873 47.3611 7.92873 47.3997V51.8328C7.92873 51.9294 7.88044 51.9777 7.78386 51.9777H7.04502C6.94844 51.9777 6.90015 51.9294 6.90015 51.8328V41.9816C6.90015 41.885 6.94844 41.8367 7.04502 41.8367H9.43539C10.1404 41.8367 10.7103 42.0975 11.1449 42.619C11.5795 43.1309 11.7968 43.8021 11.7968 44.6327C11.7968 45.2605 11.6616 45.8013 11.3911 46.2553C11.1207 46.7092 10.7537 47.0279 10.2901 47.2114C10.2515 47.2211 10.237 47.2452 10.2467 47.2838L11.8258 51.8183L11.8402 51.8763C11.8402 51.9439 11.7968 51.9777 11.7099 51.9777H10.9565ZM7.98668 42.7349C7.94805 42.7349 7.92873 42.7542 7.92873 42.7929V46.4581C7.92873 46.4967 7.94805 46.516 7.98668 46.516H9.29052C9.73479 46.516 10.0921 46.347 10.3626 46.009C10.633 45.6613 10.7682 45.2025 10.7682 44.6327C10.7682 44.0629 10.633 43.6041 10.3626 43.2564C10.0921 42.9088 9.73479 42.7349 9.29052 42.7349H7.98668ZM15.7135 52.0936C14.9698 52.0936 14.371 51.8376 13.9171 51.3257C13.4632 50.8139 13.2362 50.1378 13.2362 49.2976V41.9816C13.2362 41.885 13.2845 41.8367 13.3811 41.8367H14.1199C14.2165 41.8367 14.2648 41.885 14.2648 41.9816V49.4134C14.2648 49.9446 14.3952 50.3744 14.6559 50.7028C14.9264 51.0312 15.2789 51.1954 15.7135 51.1954C16.1578 51.1954 16.5151 51.0312 16.7855 50.7028C17.056 50.3744 17.1912 49.9446 17.1912 49.4134V41.9816C17.1912 41.885 17.2395 41.8367 17.336 41.8367H18.0749C18.1715 41.8367 18.2198 41.885 18.2198 41.9816V49.2976C18.2198 50.1378 17.988 50.8139 17.5244 51.3257C17.0705 51.8376 16.4668 52.0936 15.7135 52.0936ZM20.3579 51.9777C20.2613 51.9777 20.213 51.9294 20.213 51.8328V41.9816C20.213 41.885 20.2613 41.8367 20.3579 41.8367H21.0967C21.1933 41.8367 21.2416 41.885 21.2416 41.9816V51.8328C21.2416 51.9294 21.1933 51.9777 21.0967 51.9777H20.3579ZM27.773 41.8367C27.8696 41.8367 27.9178 41.885 27.9178 41.9816V42.59C27.9178 42.6866 27.8696 42.7349 27.773 42.7349H25.8607C25.822 42.7349 25.8027 42.7542 25.8027 42.7929V51.8328C25.8027 51.9294 25.7544 51.9777 25.6579 51.9777H24.919C24.8224 51.9777 24.7741 51.9294 24.7741 51.8328V42.7929C24.7741 42.7542 24.7548 42.7349 24.7162 42.7349H22.9198C22.8232 42.7349 22.7749 42.6866 22.7749 42.59V41.9816C22.7749 41.885 22.8232 41.8367 22.9198 41.8367H27.773ZM28.2669 47.9213C28.1703 47.9213 28.122 47.873 28.122 47.7764V47.168C28.122 47.0714 28.1703 47.0231 28.2669 47.0231H31.5844C31.681 47.0231 31.7293 47.0714 31.7293 47.168V47.7764C31.7293 47.873 31.681 47.9213 31.5844 47.9213H28.2669ZM38.1974 49.2251C38.2071 50.0943 37.9753 50.7704 37.5021 51.2533C37.0288 51.7362 36.3962 51.9777 35.6043 51.9777H33.3877C33.2912 51.9777 33.2429 51.9294 33.2429 51.8328V41.9816C33.2429 41.885 33.2912 41.8367 33.3877 41.8367H35.4739C36.3045 41.8367 36.9564 42.0685 37.4296 42.5321C37.9029 42.986 38.1395 43.6379 38.1395 44.4878C38.1395 45.5695 37.7387 46.3084 36.9371 46.7044C36.9177 46.714 36.9081 46.7237 36.9081 46.7333C36.9081 46.743 36.9129 46.7527 36.9226 46.7623C37.7725 47.2549 38.1974 48.0758 38.1974 49.2251ZM34.3294 42.7349C34.2908 42.7349 34.2714 42.7542 34.2714 42.7929V46.2842C34.2714 46.3229 34.2908 46.3422 34.3294 46.3422H35.4739C35.9954 46.3422 36.401 46.1877 36.6908 45.8786C36.9805 45.5695 37.1254 45.1349 37.1254 44.5748C37.1254 43.9953 36.9805 43.5462 36.6908 43.2275C36.401 42.8991 35.9954 42.7349 35.4739 42.7349H34.3294ZM35.5318 51.065C36.0437 51.065 36.4445 50.896 36.7342 50.5579C37.024 50.2102 37.1689 49.7273 37.1689 49.1092C37.1689 48.4814 37.024 47.9937 36.7342 47.646C36.4445 47.2983 36.0437 47.1245 35.5318 47.1245H34.3294C34.2908 47.1245 34.2714 47.1438 34.2714 47.1824V51.007C34.2714 51.0457 34.2908 51.065 34.3294 51.065H35.5318ZM43.2641 51.9777C43.1771 51.9777 43.124 51.9342 43.1047 51.8473L42.7425 50.0509C42.7425 50.0316 42.7329 50.0171 42.7136 50.0074C42.7039 49.9978 42.6894 49.9929 42.6701 49.9929H40.0479C40.0286 49.9929 40.0093 49.9978 39.99 50.0074C39.9803 50.0171 39.9755 50.0316 39.9755 50.0509L39.6133 51.8473C39.6037 51.9342 39.5505 51.9777 39.454 51.9777H38.7151C38.6668 51.9777 38.6282 51.9632 38.5992 51.9342C38.5799 51.9052 38.5751 51.8666 38.5847 51.8183L40.7578 41.9671C40.7771 41.8802 40.8302 41.8367 40.9172 41.8367H41.7864C41.883 41.8367 41.9361 41.8802 41.9457 41.9671L44.1478 51.8183V51.8473C44.1478 51.9342 44.1043 51.9777 44.0174 51.9777H43.2641ZM40.1638 49.0947C40.1638 49.1334 40.1783 49.1527 40.2073 49.1527H42.4963C42.5252 49.1527 42.5397 49.1334 42.5397 49.0947L41.3807 43.4013C41.3711 43.3723 41.3614 43.3579 41.3518 43.3579C41.3421 43.3579 41.3325 43.3723 41.3228 43.4013L40.1638 49.0947ZM47.0687 52.0936C46.354 52.0936 45.7746 51.8569 45.3303 51.3837C44.886 50.9104 44.6639 50.2923 44.6639 49.5293V49.1961C44.6639 49.0996 44.7122 49.0513 44.8088 49.0513H45.5186C45.6152 49.0513 45.6635 49.0996 45.6635 49.1961V49.4859C45.6635 49.9978 45.7939 50.4131 46.0546 50.7318C46.3154 51.0408 46.6534 51.1954 47.0687 51.1954C47.4744 51.1954 47.8124 51.0457 48.0828 50.7463C48.3533 50.4469 48.4885 50.0509 48.4885 49.5583C48.4885 49.2299 48.4209 48.9499 48.2857 48.7181C48.1601 48.4766 47.9911 48.269 47.7786 48.0951C47.5758 47.9116 47.2329 47.6364 46.75 47.2694C46.2671 46.912 45.8856 46.6078 45.6055 46.3567C45.3255 46.0959 45.0937 45.7869 44.9102 45.4295C44.7363 45.0722 44.6494 44.652 44.6494 44.1691C44.6494 43.4158 44.8667 42.8218 45.3013 42.3872C45.7359 41.9429 46.3009 41.7208 46.9963 41.7208C47.7303 41.7208 48.3146 41.9623 48.7492 42.4452C49.1935 42.9184 49.4156 43.551 49.4156 44.343V44.7051C49.4156 44.8017 49.3674 44.85 49.2708 44.85H48.5464C48.4498 44.85 48.4015 44.8017 48.4015 44.7051V44.3285C48.4015 43.8166 48.2712 43.4061 48.0104 43.0971C47.7593 42.7784 47.4213 42.619 46.9963 42.619C46.61 42.619 46.2913 42.7591 46.0402 43.0391C45.789 43.3096 45.6635 43.6959 45.6635 44.1981C45.6635 44.4975 45.7166 44.7631 45.8228 44.9949C45.9387 45.217 46.1078 45.4295 46.3299 45.6323C46.552 45.8351 46.8804 46.1007 47.315 46.4291C47.8945 46.8541 48.3243 47.2018 48.6044 47.4722C48.8941 47.7329 49.1162 48.0227 49.2708 48.3414C49.4253 48.6505 49.5026 49.0271 49.5026 49.4714C49.5026 50.2634 49.2756 50.9008 48.8217 51.3837C48.3677 51.8569 47.7834 52.0936 47.0687 52.0936ZM55.6187 42.59C55.6187 42.6866 55.5704 42.7349 55.4738 42.7349H52.1128C52.0742 42.7349 52.0549 42.7542 52.0549 42.7929V46.3856C52.0549 46.4243 52.0742 46.4436 52.1128 46.4436H54.228C54.3245 46.4436 54.3728 46.4919 54.3728 46.5885V47.2114C54.3728 47.308 54.3245 47.3563 54.228 47.3563H52.1128C52.0742 47.3563 52.0549 47.3756 52.0549 47.4142V51.0215C52.0549 51.0601 52.0742 51.0795 52.1128 51.0795H55.4738C55.5704 51.0795 55.6187 51.1278 55.6187 51.2243V51.8328C55.6187 51.9294 55.5704 51.9777 55.4738 51.9777H51.1712C51.0746 51.9777 51.0263 51.9294 51.0263 51.8328V41.9816C51.0263 41.885 51.0746 41.8367 51.1712 41.8367H55.4738C55.5704 41.8367 55.6187 41.885 55.6187 41.9816V42.59ZM57.3819 51.9777C57.2854 51.9777 57.2371 51.9294 57.2371 51.8328V41.9816C57.2371 41.885 57.2854 41.8367 57.3819 41.8367H59.613C60.3566 41.8367 60.9506 42.083 61.3949 42.5755C61.8391 43.0585 62.0613 43.7104 62.0613 44.5313V49.2831C62.0613 50.104 61.8391 50.7607 61.3949 51.2533C60.9506 51.7362 60.3566 51.9777 59.613 51.9777H57.3819ZM58.2657 51.0215C58.2657 51.0601 58.285 51.0795 58.3236 51.0795L59.5985 51.065C60.0234 51.065 60.3615 50.9008 60.6126 50.5724C60.8733 50.244 61.0085 49.7998 61.0182 49.2396V44.5748C61.0182 44.0049 60.8926 43.5558 60.6415 43.2275C60.3904 42.8991 60.0427 42.7349 59.5985 42.7349H58.3236C58.285 42.7349 58.2657 42.7542 58.2657 42.7929V51.0215ZM68.8418 52.0936C68.1271 52.0936 67.5476 51.8569 67.1033 51.3837C66.6591 50.9104 66.4369 50.2923 66.4369 49.5293V49.1961C66.4369 49.0996 66.4852 49.0513 66.5818 49.0513H67.2917C67.3883 49.0513 67.4365 49.0996 67.4365 49.1961V49.4859C67.4365 49.9978 67.5669 50.4131 67.8277 50.7318C68.0885 51.0408 68.4265 51.1954 68.8418 51.1954C69.2474 51.1954 69.5855 51.0457 69.8559 50.7463C70.1263 50.4469 70.2615 50.0509 70.2615 49.5583C70.2615 49.2299 70.1939 48.9499 70.0587 48.7181C69.9332 48.4766 69.7641 48.269 69.5517 48.0951C69.3488 47.9116 69.006 47.6364 68.5231 47.2694C68.0402 46.912 67.6587 46.6078 67.3786 46.3567C67.0985 46.0959 66.8667 45.7869 66.6832 45.4295C66.5094 45.0722 66.4225 44.652 66.4225 44.1691C66.4225 43.4158 66.6398 42.8218 67.0744 42.3872C67.509 41.9429 68.074 41.7208 68.7694 41.7208C69.5034 41.7208 70.0877 41.9623 70.5223 42.4452C70.9666 42.9184 71.1887 43.551 71.1887 44.343V44.7051C71.1887 44.8017 71.1404 44.85 71.0438 44.85H70.3195C70.2229 44.85 70.1746 44.8017 70.1746 44.7051V44.3285C70.1746 43.8166 70.0442 43.4061 69.7835 43.0971C69.5323 42.7784 69.1943 42.619 68.7694 42.619C68.383 42.619 68.0643 42.7591 67.8132 43.0391C67.5621 43.3096 67.4365 43.6959 67.4365 44.1981C67.4365 44.4975 67.4897 44.7631 67.5959 44.9949C67.7118 45.217 67.8808 45.4295 68.103 45.6323C68.3251 45.8351 68.6535 46.1007 69.0881 46.4291C69.6676 46.8541 70.0973 47.2018 70.3774 47.4722C70.6672 47.7329 70.8893 48.0227 71.0438 48.3414C71.1984 48.6505 71.2756 49.0271 71.2756 49.4714C71.2756 50.2634 71.0487 50.9008 70.5947 51.3837C70.1408 51.8569 69.5565 52.0936 68.8418 52.0936ZM73.0433 51.9777C72.9467 51.9777 72.8984 51.9294 72.8984 51.8328V41.9816C72.8984 41.885 72.9467 41.8367 73.0433 41.8367H73.7821C73.8787 41.8367 73.927 41.885 73.927 41.9816V46.6754C73.927 46.7044 73.9366 46.7237 73.956 46.7333C73.9753 46.743 73.9898 46.7333 73.9994 46.7044L76.7954 41.9381C76.8437 41.8705 76.9017 41.8367 76.9693 41.8367H77.7805C77.8385 41.8367 77.8771 41.856 77.8964 41.8947C77.9158 41.9236 77.9109 41.9623 77.882 42.0106L75.622 45.9366C75.6027 45.9752 75.5978 46.0042 75.6075 46.0235L78.0993 51.8038L78.1137 51.8618C78.1137 51.939 78.0703 51.9777 77.9834 51.9777H77.1576C77.0803 51.9777 77.0272 51.939 76.9982 51.8618L74.9121 46.9362C74.9024 46.8975 74.8783 46.8975 74.8397 46.9362L73.9415 48.3269C73.9318 48.3366 73.927 48.3607 73.927 48.3994V51.8328C73.927 51.9294 73.8787 51.9777 73.7821 51.9777H73.0433ZM79.5936 51.9777C79.497 51.9777 79.4487 51.9294 79.4487 51.8328V41.9816C79.4487 41.885 79.497 41.8367 79.5936 41.8367H80.3324C80.429 41.8367 80.4773 41.885 80.4773 41.9816V51.8328C80.4773 51.9294 80.429 51.9777 80.3324 51.9777H79.5936ZM86.6175 41.9816C86.6175 41.885 86.6658 41.8367 86.7624 41.8367H87.4868C87.5834 41.8367 87.6316 41.885 87.6316 41.9816V51.8328C87.6316 51.9294 87.5834 51.9777 87.4868 51.9777H86.632C86.5548 51.9777 86.5017 51.939 86.4727 51.8618L83.6477 44.3719C83.638 44.343 83.6236 44.3333 83.6042 44.343C83.5849 44.343 83.5753 44.3575 83.5753 44.3864L83.5897 51.8328C83.5897 51.9294 83.5415 51.9777 83.4449 51.9777H82.706C82.6095 51.9777 82.5612 51.9294 82.5612 51.8328V41.9816C82.5612 41.885 82.6095 41.8367 82.706 41.8367H83.5463C83.6236 41.8367 83.6767 41.8753 83.7056 41.9526L86.5451 49.4569C86.5548 49.4859 86.5693 49.5004 86.5886 49.5004C86.6079 49.4907 86.6175 49.4714 86.6175 49.4424V41.9816ZM91.9222 52.0936C91.1785 52.0936 90.5797 51.8666 90.1258 51.4127C89.6815 50.9587 89.4594 50.3503 89.4594 49.5873V44.2126C89.4594 43.4593 89.6815 42.8556 90.1258 42.4017C90.5797 41.9478 91.1785 41.7208 91.9222 41.7208C92.6755 41.7208 93.2743 41.9478 93.7186 42.4017C94.1725 42.846 94.3995 43.4496 94.3995 44.2126V44.4589C94.3995 44.5554 94.3512 44.6037 94.2546 44.6037L93.5013 44.6472C93.4047 44.6472 93.3564 44.5989 93.3564 44.5023V44.1402C93.3564 43.6862 93.226 43.3192 92.9653 43.0391C92.7045 42.7591 92.3568 42.619 91.9222 42.619C91.4972 42.619 91.1496 42.7591 90.8791 43.0391C90.6184 43.3192 90.488 43.6862 90.488 44.1402V49.6742C90.488 50.1281 90.6184 50.4952 90.8791 50.7752C91.1496 51.0553 91.4972 51.1954 91.9222 51.1954C92.3568 51.1954 92.7045 51.0553 92.9653 50.7752C93.226 50.4952 93.3564 50.1281 93.3564 49.6742V49.312C93.3564 49.2155 93.4047 49.1672 93.5013 49.1672L94.2546 49.2106C94.3512 49.2106 94.3995 49.2589 94.3995 49.3555V49.5873C94.3995 50.3503 94.1725 50.9587 93.7186 51.4127C93.2647 51.8666 92.6659 52.0936 91.9222 52.0936ZM99.9391 51.9777C99.8522 51.9777 99.7991 51.9342 99.7797 51.8473L99.4176 50.0509C99.4176 50.0316 99.4079 50.0171 99.3886 50.0074C99.3789 49.9978 99.3644 49.9929 99.3451 49.9929H96.723C96.7036 49.9929 96.6843 49.9978 96.665 50.0074C96.6554 50.0171 96.6505 50.0316 96.6505 50.0509L96.2883 51.8473C96.2787 51.9342 96.2256 51.9777 96.129 51.9777H95.3901C95.3419 51.9777 95.3032 51.9632 95.2743 51.9342C95.2549 51.9052 95.2501 51.8666 95.2598 51.8183L97.4328 41.9671C97.4521 41.8802 97.5053 41.8367 97.5922 41.8367H98.4614C98.558 41.8367 98.6111 41.8802 98.6208 41.9671L100.823 51.8183V51.8473C100.823 51.9342 100.779 51.9777 100.692 51.9777H99.9391ZM96.8389 49.0947C96.8389 49.1334 96.8533 49.1527 96.8823 49.1527H99.1713C99.2003 49.1527 99.2147 49.1334 99.2147 49.0947L98.0558 43.4013C98.0461 43.3723 98.0365 43.3579 98.0268 43.3579C98.0171 43.3579 98.0075 43.3723 97.9978 43.4013L96.8389 49.0947ZM106.113 51.9777C106.026 51.9777 105.968 51.939 105.939 51.8618L104.461 47.3853C104.452 47.3563 104.432 47.3418 104.403 47.3418H103.143C103.104 47.3418 103.085 47.3611 103.085 47.3997V51.8328C103.085 51.9294 103.037 51.9777 102.94 51.9777H102.201C102.105 51.9777 102.056 51.9294 102.056 51.8328V41.9816C102.056 41.885 102.105 41.8367 102.201 41.8367H104.592C105.297 41.8367 105.867 42.0975 106.301 42.619C106.736 43.1309 106.953 43.8021 106.953 44.6327C106.953 45.2605 106.818 45.8013 106.547 46.2553C106.277 46.7092 105.91 47.0279 105.446 47.2114C105.408 47.2211 105.393 47.2452 105.403 47.2838L106.982 51.8183L106.997 51.8763C106.997 51.9439 106.953 51.9777 106.866 51.9777H106.113ZM103.143 42.7349C103.104 42.7349 103.085 42.7542 103.085 42.7929V46.4581C103.085 46.4967 103.104 46.516 103.143 46.516H104.447C104.891 46.516 105.248 46.347 105.519 46.009C105.789 45.6613 105.925 45.2025 105.925 44.6327C105.925 44.0629 105.789 43.6041 105.519 43.2564C105.248 42.9088 104.891 42.7349 104.447 42.7349H103.143ZM113.072 42.59C113.072 42.6866 113.024 42.7349 112.927 42.7349H109.566C109.527 42.7349 109.508 42.7542 109.508 42.7929V46.3856C109.508 46.4243 109.527 46.4436 109.566 46.4436H111.681C111.778 46.4436 111.826 46.4919 111.826 46.5885V47.2114C111.826 47.308 111.778 47.3563 111.681 47.3563H109.566C109.527 47.3563 109.508 47.3756 109.508 47.4142V51.0215C109.508 51.0601 109.527 51.0795 109.566 51.0795H112.927C113.024 51.0795 113.072 51.1278 113.072 51.2243V51.8328C113.072 51.9294 113.024 51.9777 112.927 51.9777H108.624C108.528 51.9777 108.479 51.9294 108.479 51.8328V41.9816C108.479 41.885 108.528 41.8367 108.624 41.8367H112.927C113.024 41.8367 113.072 41.885 113.072 41.9816V42.59ZM120.111 41.8222C120.816 41.8222 121.386 42.083 121.821 42.6045C122.255 43.1164 122.473 43.7925 122.473 44.6327C122.473 45.4633 122.26 46.1345 121.835 46.6464C121.41 47.1486 120.85 47.3997 120.155 47.3997H118.663C118.624 47.3997 118.605 47.4191 118.605 47.4577V51.8328C118.605 51.9294 118.556 51.9777 118.46 51.9777H117.721C117.624 51.9777 117.576 51.9294 117.576 51.8328V41.9671C117.576 41.8705 117.624 41.8222 117.721 41.8222H120.111ZM119.981 46.5595C120.415 46.5595 120.768 46.3856 121.038 46.038C121.309 45.6903 121.444 45.2267 121.444 44.6472C121.444 44.0677 121.309 43.6041 121.038 43.2564C120.768 42.8991 120.415 42.7204 119.981 42.7204H118.663C118.624 42.7204 118.605 42.7397 118.605 42.7784V46.5015C118.605 46.5402 118.624 46.5595 118.663 46.5595H119.981ZM128.056 51.9777C127.969 51.9777 127.911 51.939 127.882 51.8618L126.404 47.3853C126.394 47.3563 126.375 47.3418 126.346 47.3418H125.086C125.047 47.3418 125.028 47.3611 125.028 47.3997V51.8328C125.028 51.9294 124.98 51.9777 124.883 51.9777H124.144C124.048 51.9777 123.999 51.9294 123.999 51.8328V41.9816C123.999 41.885 124.048 41.8367 124.144 41.8367H126.535C127.24 41.8367 127.809 42.0975 128.244 42.619C128.679 43.1309 128.896 43.8021 128.896 44.6327C128.896 45.2605 128.761 45.8013 128.49 46.2553C128.22 46.7092 127.853 47.0279 127.389 47.2114C127.351 47.2211 127.336 47.2452 127.346 47.2838L128.925 51.8183L128.939 51.8763C128.939 51.9439 128.896 51.9777 128.809 51.9777H128.056ZM125.086 42.7349C125.047 42.7349 125.028 42.7542 125.028 42.7929V46.4581C125.028 46.4967 125.047 46.516 125.086 46.516H126.39C126.834 46.516 127.191 46.347 127.462 46.009C127.732 45.6613 127.867 45.2025 127.867 44.6327C127.867 44.0629 127.732 43.6041 127.462 43.2564C127.191 42.9088 126.834 42.7349 126.39 42.7349H125.086ZM132.668 52.0936C131.924 52.0936 131.32 51.8618 130.857 51.3982C130.403 50.9346 130.176 50.3213 130.176 49.5583V44.256C130.176 43.4931 130.403 42.8798 130.857 42.4162C131.32 41.9526 131.924 41.7208 132.668 41.7208C133.421 41.7208 134.03 41.9526 134.493 42.4162C134.957 42.8798 135.189 43.4931 135.189 44.256V49.5583C135.189 50.3116 134.957 50.9249 134.493 51.3982C134.03 51.8618 133.421 52.0936 132.668 52.0936ZM132.668 51.1954C133.112 51.1954 133.469 51.0505 133.74 50.7607C134.02 50.4613 134.16 50.0799 134.16 49.6163V44.2126C134.16 43.7393 134.02 43.3579 133.74 43.0681C133.469 42.7687 133.112 42.619 132.668 42.619C132.233 42.619 131.881 42.7687 131.61 43.0681C131.34 43.3579 131.205 43.7393 131.205 44.2126V49.6163C131.205 50.0799 131.34 50.4613 131.61 50.7607C131.881 51.0505 132.233 51.1954 132.668 51.1954ZM137.174 51.9777C137.077 51.9777 137.029 51.9294 137.029 51.8328V41.9816C137.029 41.885 137.077 41.8367 137.174 41.8367H139.405C140.149 41.8367 140.743 42.083 141.187 42.5755C141.631 43.0585 141.853 43.7104 141.853 44.5313V49.2831C141.853 50.104 141.631 50.7607 141.187 51.2533C140.743 51.7362 140.149 51.9777 139.405 51.9777H137.174ZM138.058 51.0215C138.058 51.0601 138.077 51.0795 138.116 51.0795L139.391 51.065C139.816 51.065 140.154 50.9008 140.405 50.5724C140.665 50.244 140.801 49.7998 140.81 49.2396V44.5748C140.81 44.0049 140.685 43.5558 140.434 43.2275C140.183 42.8991 139.835 42.7349 139.391 42.7349H138.116C138.077 42.7349 138.058 42.7542 138.058 42.7929V51.0215ZM146.154 52.0936C145.41 52.0936 144.811 51.8376 144.357 51.3257C143.903 50.8139 143.676 50.1378 143.676 49.2976V41.9816C143.676 41.885 143.725 41.8367 143.821 41.8367H144.56C144.657 41.8367 144.705 41.885 144.705 41.9816V49.4134C144.705 49.9446 144.835 50.3744 145.096 50.7028C145.367 51.0312 145.719 51.1954 146.154 51.1954C146.598 51.1954 146.955 51.0312 147.226 50.7028C147.496 50.3744 147.631 49.9446 147.631 49.4134V41.9816C147.631 41.885 147.68 41.8367 147.776 41.8367H148.515C148.612 41.8367 148.66 41.885 148.66 41.9816V49.2976C148.66 50.1378 148.428 50.8139 147.965 51.3257C147.511 51.8376 146.907 52.0936 146.154 52.0936ZM152.771 52.0936C152.027 52.0936 151.428 51.8666 150.974 51.4127C150.53 50.9587 150.308 50.3503 150.308 49.5873V44.2126C150.308 43.4593 150.53 42.8556 150.974 42.4017C151.428 41.9478 152.027 41.7208 152.771 41.7208C153.524 41.7208 154.123 41.9478 154.567 42.4017C155.021 42.846 155.248 43.4496 155.248 44.2126V44.4589C155.248 44.5554 155.2 44.6037 155.103 44.6037L154.35 44.6472C154.253 44.6472 154.205 44.5989 154.205 44.5023V44.1402C154.205 43.6862 154.075 43.3192 153.814 43.0391C153.553 42.7591 153.205 42.619 152.771 42.619C152.346 42.619 151.998 42.7591 151.728 43.0391C151.467 43.3192 151.337 43.6862 151.337 44.1402V49.6742C151.337 50.1281 151.467 50.4952 151.728 50.7752C151.998 51.0553 152.346 51.1954 152.771 51.1954C153.205 51.1954 153.553 51.0553 153.814 50.7752C154.075 50.4952 154.205 50.1281 154.205 49.6742V49.312C154.205 49.2155 154.253 49.1672 154.35 49.1672L155.103 49.2106C155.2 49.2106 155.248 49.2589 155.248 49.3555V49.5873C155.248 50.3503 155.021 50.9587 154.567 51.4127C154.113 51.8666 153.514 52.0936 152.771 52.0936ZM161.467 41.8367C161.564 41.8367 161.612 41.885 161.612 41.9816V42.59C161.612 42.6866 161.564 42.7349 161.467 42.7349H159.555C159.516 42.7349 159.497 42.7542 159.497 42.7929V51.8328C159.497 51.9294 159.449 51.9777 159.352 51.9777H158.613C158.517 51.9777 158.468 51.9294 158.468 51.8328V42.7929C158.468 42.7542 158.449 42.7349 158.41 42.7349H156.614C156.517 42.7349 156.469 42.6866 156.469 42.59V41.9816C156.469 41.885 156.517 41.8367 156.614 41.8367H161.467ZM165.116 52.0936C164.401 52.0936 163.822 51.8569 163.377 51.3837C162.933 50.9104 162.711 50.2923 162.711 49.5293V49.1961C162.711 49.0996 162.759 49.0513 162.856 49.0513H163.566C163.662 49.0513 163.711 49.0996 163.711 49.1961V49.4859C163.711 49.9978 163.841 50.4131 164.102 50.7318C164.362 51.0408 164.7 51.1954 165.116 51.1954C165.521 51.1954 165.859 51.0457 166.13 50.7463C166.4 50.4469 166.536 50.0509 166.536 49.5583C166.536 49.2299 166.468 48.9499 166.333 48.7181C166.207 48.4766 166.038 48.269 165.826 48.0951C165.623 47.9116 165.28 47.6364 164.797 47.2694C164.314 46.912 163.933 46.6078 163.653 46.3567C163.372 46.0959 163.141 45.7869 162.957 45.4295C162.783 45.0722 162.696 44.652 162.696 44.1691C162.696 43.4158 162.914 42.8218 163.348 42.3872C163.783 41.9429 164.348 41.7208 165.043 41.7208C165.777 41.7208 166.362 41.9623 166.796 42.4452C167.241 42.9184 167.463 43.551 167.463 44.343V44.7051C167.463 44.8017 167.414 44.85 167.318 44.85H166.593C166.497 44.85 166.449 44.8017 166.449 44.7051V44.3285C166.449 43.8166 166.318 43.4061 166.057 43.0971C165.806 42.7784 165.468 42.619 165.043 42.619C164.657 42.619 164.338 42.7591 164.087 43.0391C163.836 43.3096 163.711 43.6959 163.711 44.1981C163.711 44.4975 163.764 44.7631 163.87 44.9949C163.986 45.217 164.155 45.4295 164.377 45.6323C164.599 45.8351 164.927 46.1007 165.362 46.4291C165.942 46.8541 166.371 47.2018 166.651 47.4722C166.941 47.7329 167.163 48.0227 167.318 48.3414C167.472 48.6505 167.55 49.0271 167.55 49.4714C167.55 50.2634 167.323 50.9008 166.869 51.3837C166.415 51.8569 165.83 52.0936 165.116 52.0936Z" fill="#F59176"/>
<path d="M14.4392 14.1203C14.4392 14.24 14.3913 14.3477 14.2955 14.4435C14.2237 14.5154 14.1279 14.5513 14.0082 14.5513H6.28572C6.16599 14.5513 6.10612 14.6111 6.10612 14.7309V21.5194C6.10612 21.6392 6.16599 21.699 6.28572 21.699H10.8473C10.9671 21.699 11.0629 21.7469 11.1347 21.8427C11.2305 21.9145 11.2784 22.0103 11.2784 22.13V24.8958C11.2784 25.0155 11.2305 25.1232 11.1347 25.219C11.0629 25.2909 10.9671 25.3268 10.8473 25.3268H6.28572C6.16599 25.3268 6.10612 25.3866 6.10612 25.5064V35.6713C6.10612 35.791 6.05823 35.8988 5.96245 35.9945C5.89061 36.0664 5.79483 36.1023 5.6751 36.1023H2.37061C2.25088 36.1023 2.14313 36.0664 2.04735 35.9945C1.97551 35.8988 1.93959 35.791 1.93959 35.6713V11.3905C1.93959 11.2707 1.97551 11.1749 2.04735 11.1031C2.14313 11.0073 2.25088 10.9594 2.37061 10.9594H14.0082C14.1279 10.9594 14.2237 11.0073 14.2955 11.1031C14.3913 11.1749 14.4392 11.2707 14.4392 11.3905V14.1203ZM164.653 11.3905C164.653 11.2707 164.689 11.1749 164.761 11.1031C164.857 11.0073 164.964 10.9594 165.084 10.9594H168.353C168.472 10.9594 168.568 11.0073 168.64 11.1031C168.736 11.1749 168.784 11.2707 168.784 11.3905V35.6713C168.784 35.791 168.736 35.8988 168.64 35.9945C168.568 36.0664 168.472 36.1023 168.353 36.1023H164.581C164.342 36.1023 164.186 35.9826 164.114 35.7431L158.763 20.5137C158.739 20.4419 158.691 20.4179 158.619 20.4419C158.571 20.4419 158.547 20.4778 158.547 20.5496L158.583 35.6713C158.583 35.791 158.535 35.8988 158.439 35.9945C158.367 36.0664 158.272 36.1023 158.152 36.1023H154.883C154.764 36.1023 154.656 36.0664 154.56 35.9945C154.488 35.8988 154.452 35.791 154.452 35.6713V11.3905C154.452 11.2707 154.488 11.1749 154.56 11.1031C154.656 11.0073 154.764 10.9594 154.883 10.9594H158.583C158.822 10.9594 158.978 11.0792 159.05 11.3186L164.438 26.4403C164.462 26.5121 164.498 26.548 164.545 26.548C164.617 26.5241 164.653 26.4762 164.653 26.4043V11.3905Z" fill="#FCAA29"/>
<path d="M26.7965 36.1023C26.5571 36.1023 26.4014 35.9826 26.3296 35.7431L23.2765 25.4345C23.2286 25.3388 23.1688 25.2909 23.0969 25.2909H21.1932C21.0735 25.2909 21.0136 25.3507 21.0136 25.4705V35.6713C21.0136 35.791 20.9658 35.8988 20.87 35.9945C20.7981 36.0664 20.7024 36.1023 20.5826 36.1023H17.2781C17.1584 36.1023 17.0507 36.0664 16.9549 35.9945C16.883 35.8988 16.8471 35.791 16.8471 35.6713V11.3905C16.8471 11.2707 16.883 11.1749 16.9549 11.1031C17.0507 11.0073 17.1584 10.9594 17.2781 10.9594H24.0308C25.2999 10.9594 26.4134 11.2707 27.3712 11.8933C28.353 12.492 29.1073 13.354 29.6341 14.4794C30.1848 15.5809 30.4602 16.85 30.4602 18.2868C30.4602 19.7714 30.1728 21.0525 29.5981 22.13C29.0234 23.2076 28.2213 24.0217 27.1916 24.5725C27.0958 24.5964 27.0599 24.6683 27.0839 24.788L30.6039 35.5994C30.6278 35.6473 30.6398 35.7072 30.6398 35.779C30.6398 35.9945 30.5081 36.1023 30.2447 36.1023H26.7965ZM21.1932 14.5513C21.0735 14.5513 21.0136 14.6111 21.0136 14.7309V21.8786C21.0136 21.9983 21.0735 22.0582 21.1932 22.0582H23.3843C24.2463 22.0582 24.9407 21.723 25.4675 21.0525C26.0183 20.382 26.2936 19.4721 26.2936 18.3227C26.2936 17.1733 26.0183 16.2634 25.4675 15.5929C24.9407 14.8985 24.2463 14.5513 23.3843 14.5513H21.1932Z" fill="#C5D9D1"/>
<path d="M40.0481 36.3896C37.9888 36.3896 36.3366 35.7311 35.0914 34.4141C33.8702 33.0732 33.2596 31.3132 33.2596 29.1341V11.3905C33.2596 11.2707 33.2955 11.1749 33.3673 11.1031C33.4631 11.0073 33.5709 10.9594 33.6906 10.9594H36.9951C37.1148 10.9594 37.2106 11.0073 37.2824 11.1031C37.3782 11.1749 37.4261 11.2707 37.4261 11.3905V29.5652C37.4261 30.523 37.6656 31.3012 38.1445 31.8998C38.6234 32.4985 39.2579 32.7978 40.0481 32.7978C40.8383 32.7978 41.4729 32.4985 41.9518 31.8998C42.4307 31.3012 42.6702 30.523 42.6702 29.5652V11.3905C42.6702 11.2707 42.7061 11.1749 42.7779 11.1031C42.8737 11.0073 42.9815 10.9594 43.1012 10.9594H46.4057C46.5254 10.9594 46.6212 11.0073 46.693 11.1031C46.7888 11.1749 46.8367 11.2707 46.8367 11.3905V29.1341C46.8367 31.3132 46.2141 33.0732 44.969 34.4141C43.7238 35.7311 42.0835 36.3896 40.0481 36.3896Z" fill="#F59176"/>
<path d="M50.9867 36.1023C50.867 36.1023 50.7592 36.0664 50.6634 35.9945C50.5916 35.8988 50.5557 35.791 50.5557 35.6713V11.3905C50.5557 11.2707 50.5916 11.1749 50.6634 11.1031C50.7592 11.0073 50.867 10.9594 50.9867 10.9594H54.2912C54.4109 10.9594 54.5067 11.0073 54.5785 11.1031C54.6743 11.1749 54.7222 11.2707 54.7222 11.3905V35.6713C54.7222 35.791 54.6743 35.8988 54.5785 35.9945C54.5067 36.0664 54.4109 36.1023 54.2912 36.1023H50.9867ZM120.006 36.3896C118.018 36.3896 116.414 35.791 115.193 34.5937C113.972 33.3964 113.361 31.828 113.361 29.8884V28.9545C113.361 28.8348 113.397 28.739 113.469 28.6672C113.564 28.5714 113.672 28.5235 113.792 28.5235H117.06C117.18 28.5235 117.276 28.5714 117.348 28.6672C117.444 28.739 117.492 28.8348 117.492 28.9545V29.6729C117.492 30.6068 117.719 31.3611 118.174 31.9358C118.653 32.5105 119.263 32.7978 120.006 32.7978C120.748 32.7978 121.359 32.5344 121.838 32.0076C122.317 31.4569 122.556 30.7385 122.556 29.8525C122.556 29.2299 122.424 28.6911 122.161 28.2362C121.897 27.7812 121.526 27.3502 121.047 26.9431C120.569 26.536 119.802 25.9494 118.749 25.1831C117.551 24.3211 116.582 23.5548 115.839 22.8843C115.121 22.2139 114.51 21.4117 114.007 20.4778C113.529 19.52 113.289 18.4185 113.289 17.1733C113.289 15.1858 113.888 13.6054 115.085 12.4321C116.282 11.2588 117.863 10.6721 119.826 10.6721C121.814 10.6721 123.418 11.2947 124.639 12.5398C125.86 13.7611 126.471 15.3894 126.471 17.4247V18.2868C126.471 18.4065 126.423 18.5143 126.327 18.61C126.256 18.6819 126.16 18.7178 126.04 18.7178H122.807C122.688 18.7178 122.58 18.6819 122.484 18.61C122.412 18.5143 122.376 18.4065 122.376 18.2868V17.3529C122.376 16.419 122.137 15.6767 121.658 15.126C121.203 14.5513 120.592 14.2639 119.826 14.2639C119.108 14.2639 118.521 14.5273 118.066 15.0541C117.611 15.557 117.384 16.2634 117.384 17.1733C117.384 18.0354 117.623 18.7657 118.102 19.3643C118.605 19.963 119.575 20.7891 121.012 21.8427C122.472 22.9203 123.574 23.8062 124.316 24.5007C125.058 25.1711 125.633 25.9135 126.04 26.7276C126.447 27.5417 126.651 28.5115 126.651 29.637C126.651 31.6724 126.04 33.3126 124.819 34.5578C123.598 35.779 121.993 36.3896 120.006 36.3896Z" fill="#F4CF09"/>
<path d="M71.4829 10.9594C71.6026 10.9594 71.6984 11.0073 71.7702 11.1031C71.866 11.1749 71.9139 11.2707 71.9139 11.3905V14.1203C71.9139 14.24 71.866 14.3477 71.7702 14.4435C71.6984 14.5154 71.6026 14.5513 71.4829 14.5513H66.9213C66.8015 14.5513 66.7417 14.6111 66.7417 14.7309V35.6713C66.7417 35.791 66.6938 35.8988 66.598 35.9945C66.5261 36.0664 66.4304 36.1023 66.3106 36.1023H63.0061C62.8864 36.1023 62.7787 36.0664 62.6829 35.9945C62.611 35.8988 62.5751 35.791 62.5751 35.6713V14.7309C62.5751 14.6111 62.5153 14.5513 62.3955 14.5513H58.0853C57.9656 14.5513 57.8578 14.5154 57.7621 14.4435C57.6902 14.3477 57.6543 14.24 57.6543 14.1203V11.3905C57.6543 11.2707 57.6902 11.1749 57.7621 11.1031C57.8578 11.0073 57.9656 10.9594 58.0853 10.9594H71.4829Z" fill="#00757C"/>
<path d="M94.5189 14.1203C94.5189 14.24 94.471 14.3477 94.3752 14.4435C94.3034 14.5154 94.2076 14.5513 94.0879 14.5513H86.3654C86.2457 14.5513 86.1859 14.6111 86.1859 14.7309V21.5194C86.1859 21.6392 86.2457 21.699 86.3654 21.699H90.9271C91.0468 21.699 91.1426 21.7469 91.2144 21.8427C91.3102 21.9145 91.3581 22.0103 91.3581 22.13V24.8958C91.3581 25.0155 91.3102 25.1232 91.2144 25.219C91.1426 25.2909 91.0468 25.3268 90.9271 25.3268H86.3654C86.2457 25.3268 86.1859 25.3866 86.1859 25.5064V35.6713C86.1859 35.791 86.138 35.8988 86.0422 35.9945C85.9703 36.0664 85.8746 36.1023 85.7548 36.1023H82.4503C82.3306 36.1023 82.2229 36.0664 82.1271 35.9945C82.0552 35.8988 82.0193 35.791 82.0193 35.6713V11.3905C82.0193 11.2707 82.0552 11.1749 82.1271 11.1031C82.2229 11.0073 82.3306 10.9594 82.4503 10.9594H94.0879C94.2076 10.9594 94.3034 11.0073 94.3752 11.1031C94.471 11.1749 94.5189 11.2707 94.5189 11.3905V14.1203Z" fill="#F5906F"/>
<path d="M103.572 36.3896C101.512 36.3896 99.8602 35.7311 98.615 34.4141C97.3938 33.0732 96.7832 31.3132 96.7832 29.1341V11.3905C96.7832 11.2707 96.8191 11.1749 96.8909 11.1031C96.9867 11.0073 97.0945 10.9594 97.2142 10.9594H100.519C100.638 10.9594 100.734 11.0073 100.806 11.1031C100.902 11.1749 100.95 11.2707 100.95 11.3905V29.5652C100.95 30.523 101.189 31.3012 101.668 31.8998C102.147 32.4985 102.782 32.7978 103.572 32.7978C104.362 32.7978 104.997 32.4985 105.475 31.8998C105.954 31.3012 106.194 30.523 106.194 29.5652V11.3905C106.194 11.2707 106.23 11.1749 106.302 11.1031C106.397 11.0073 106.505 10.9594 106.625 10.9594H109.929C110.049 10.9594 110.145 11.0073 110.217 11.1031C110.312 11.1749 110.36 11.2707 110.36 11.3905V29.1341C110.36 31.3132 109.738 33.0732 108.493 34.4141C107.247 35.7311 105.607 36.3896 103.572 36.3896Z" fill="#C4DAD1"/>
<path d="M130.084 36.1023C129.965 36.1023 129.857 36.0664 129.761 35.9945C129.689 35.8988 129.653 35.791 129.653 35.6713V11.3905C129.653 11.2707 129.689 11.1749 129.761 11.1031C129.857 11.0073 129.965 10.9594 130.084 10.9594H133.389C133.508 10.9594 133.604 11.0073 133.676 11.1031C133.772 11.1749 133.82 11.2707 133.82 11.3905V35.6713C133.82 35.791 133.772 35.8988 133.676 35.9945C133.604 36.0664 133.508 36.1023 133.389 36.1023H130.084Z" fill="#DEE8E2"/>
<path d="M144.115 36.3896C142.056 36.3896 140.392 35.7671 139.123 34.5219C137.877 33.2767 137.255 31.6245 137.255 29.5652V17.4966C137.255 15.4373 137.877 13.785 139.123 12.5398C140.392 11.2947 142.056 10.6721 144.115 10.6721C146.174 10.6721 147.839 11.2947 149.108 12.5398C150.377 13.785 151.011 15.4373 151.011 17.4966V29.5652C151.011 31.6245 150.377 33.2767 149.108 34.5219C147.839 35.7671 146.174 36.3896 144.115 36.3896ZM144.115 32.7978C144.929 32.7978 145.588 32.5224 146.091 31.9717C146.594 31.397 146.845 30.6547 146.845 29.7447V17.317C146.845 16.4071 146.594 15.6767 146.091 15.126C145.588 14.5513 144.929 14.2639 144.115 14.2639C143.301 14.2639 142.643 14.5513 142.14 15.126C141.661 15.6767 141.421 16.4071 141.421 17.317V29.7447C141.421 30.6547 141.661 31.397 142.14 31.9717C142.643 32.5224 143.301 32.7978 144.115 32.7978Z" fill="#00757B"/>
</svg>
