<svg width="44" height="47" viewBox="0 0 44 47" fill="none" xmlns="http://www.w3.org/2000/svg">
<path d="M33.9775 3C39.5127 3 44 7.48734 44 13.0225V36.9775C44 42.5127 39.5127 47 33.9775 47H10.0225C4.48734 47 0 42.5127 0 36.9775V13.0225C0 7.48734 4.48734 3 10.0225 3H33.9775Z" fill="white"/>
<path d="M21.08 15.52C21.08 15.6533 21.0267 15.7733 20.92 15.88C20.84 15.96 20.7333 16 20.6 16H12C11.8667 16 11.8 16.0667 11.8 16.2V23.76C11.8 23.8933 11.8667 23.96 12 23.96H17.08C17.2133 23.96 17.32 24.0133 17.4 24.12C17.5067 24.2 17.56 24.3067 17.56 24.44V27.52C17.56 27.6533 17.5067 27.7733 17.4 27.88C17.32 27.96 17.2133 28 17.08 28H12C11.8667 28 11.8 28.0667 11.8 28.2V39.52C11.8 39.6533 11.7467 39.7733 11.64 39.88C11.56 39.96 11.4533 40 11.32 40H7.64C7.50667 40 7.38667 39.96 7.28 39.88C7.2 39.7733 7.16 39.6533 7.16 39.52V12.48C7.16 12.3467 7.2 12.24 7.28 12.16C7.38667 12.0533 7.50667 12 7.64 12H20.6C20.7333 12 20.84 12.0533 20.92 12.16C21.0267 12.24 21.08 12.3467 21.08 12.48V15.52Z" fill="#FCAA29"/>
<path d="M37.6816 15.52C37.6816 15.6533 37.6282 15.7733 37.5216 15.88C37.4416 15.96 37.3349 16 37.2016 16H28.6016C28.4682 16 28.4016 16.0667 28.4016 16.2V23.76C28.4016 23.8933 28.4682 23.96 28.6016 23.96H33.6816C33.8149 23.96 33.9216 24.0133 34.0016 24.12C34.1082 24.2 34.1616 24.3067 34.1616 24.44V27.52C34.1616 27.6533 34.1082 27.7733 34.0016 27.88C33.9216 27.96 33.8149 28 33.6816 28H28.6016C28.4682 28 28.4016 28.0667 28.4016 28.2V39.52C28.4016 39.6533 28.3482 39.7733 28.2416 39.88C28.1616 39.96 28.0549 40 27.9216 40H24.2416C24.1082 40 23.9882 39.96 23.8816 39.88C23.8016 39.7733 23.7616 39.6533 23.7616 39.52V12.48C23.7616 12.3467 23.8016 12.24 23.8816 12.16C23.9882 12.0533 24.1082 12 24.2416 12H37.2016C37.3349 12 37.4416 12.0533 37.5216 12.16C37.6282 12.24 37.6816 12.3467 37.6816 12.48V15.52Z" fill="#F5906F"/>
</svg>
